<svg xmlns="http://www.w3.org/2000/svg" viewBox="0 0 100 100" width="100" height="100">
  <!-- Champions League Logo -->
  <!-- Fondo estrellado -->
  <rect width="100" height="100" fill="#003399" rx="10"/>
  
  <!-- Estrellas de fondo -->
  <g fill="#fff" opacity="0.3">
    <polygon points="15,15 17,20 22,20 18,23 20,28 15,25 10,28 12,23 8,20 13,20"/>
    <polygon points="85,15 87,20 92,20 88,23 90,28 85,25 80,28 82,23 78,20 83,20"/>
    <polygon points="15,85 17,90 22,90 18,93 20,98 15,95 10,98 12,93 8,90 13,90"/>
    <polygon points="85,85 87,90 92,90 88,93 90,98 85,95 80,98 82,93 78,90 83,90"/>
  </g>
  
  <!-- Círculo central -->
  <circle cx="50" cy="50" r="32" fill="#fff"/>
  
  <!-- Copa Champions estilizada -->
  <g fill="#003399">
    <!-- Base de la copa -->
    <rect x="42" y="65" width="16" height="8" rx="2"/>
    <!-- Tallo -->
    <rect x="48" y="73" width="4" height="10"/>
    <!-- Copa -->
    <path d="M35 35c0-5 7-8 15-8s15 3 15 8v20c0 8-7 15-15 15s-15-7-15-15V35z"/>
    <!-- Asas -->
    <ellipse cx="30" cy="45" rx="3" ry="8" fill="none" stroke="#003399" stroke-width="2"/>
    <ellipse cx="70" cy="45" rx="3" ry="8" fill="none" stroke="#003399" stroke-width="2"/>
    <!-- Detalles -->
    <rect x="40" y="40" width="20" height="2"/>
    <rect x="40" y="45" width="20" height="2"/>
  </g>
  
  <!-- Texto -->
  <text x="50" y="88" font-family="Arial Black, sans-serif" font-size="8" font-weight="900" fill="#fff" text-anchor="middle">CHAMPIONS</text>
</svg>