<svg xmlns="http://www.w3.org/2000/svg" viewBox="0 0 100 100" width="100" height="100">
  <!-- Conference League Logo -->
  <!-- Fondo verde-azulado -->
  <rect width="100" height="100" fill="#00B4A6" rx="10"/>
  
  <!-- Copa central m치s peque침a -->
  <g transform="translate(50, 35)" fill="#fff">
    <!-- Base -->
    <rect x="-8" y="15" width="16" height="3" fill="#fff"/>
    <!-- Cuerpo -->
    <path d="M-7,15 L-6,-8 L6,-8 L7,15 Z" fill="#fff"/>
    <!-- Asa izquierda -->
    <path d="M-6,-8 Q-10,-10 -10,-12 Q-10,-14 -8,-14 Q-6,-14 -6,-12" stroke="#fff" stroke-width="1.5" fill="none"/>
    <!-- Asa derecha -->
    <path d="M6,-8 Q10,-10 10,-12 Q10,-14 8,-14 Q6,-14 6,-12" stroke="#fff" stroke-width="1.5" fill="none"/>
    <!-- Decoraci칩n central -->
    <circle cx="0" cy="3" r="2" fill="#00B4A6"/>
  </g>
  
  <!-- Estrellas peque침as -->
  <g fill="#fff">
    <path d="M25,25 L26,28 L29,28 L27,30 L28,33 L25,31 L22,33 L23,30 L21,28 L24,28 Z" transform="scale(0.6)"/>
    <path d="M75,25 L76,28 L79,28 L77,30 L78,33 L75,31 L72,33 L73,30 L71,28 L74,28 Z" transform="scale(0.6)"/>
    <path d="M25,75 L26,78 L29,78 L27,80 L28,83 L25,81 L22,83 L23,80 L21,78 L24,78 Z" transform="scale(0.6)"/>
  </g>
  
  <!-- Texto -->
  <text x="50" y="80" font-family="Arial Black, sans-serif" font-size="9" font-weight="900" fill="#fff" text-anchor="middle">CONFERENCE</text>
  <text x="50" y="92" font-family="Arial Black, sans-serif" font-size="9" font-weight="900" fill="#fff" text-anchor="middle">LEAGUE</text>
</svg>