<svg xmlns="http://www.w3.org/2000/svg" viewBox="0 0 100 100" width="100" height="100">
  <!-- Europa League Logo -->
  <!-- Fondo naranja característico -->
  <rect width="100" height="100" fill="#FF6600" rx="10"/>
  
  <!-- Copa estilizada -->
  <g transform="translate(50, 40)" fill="#fff">
    <!-- Base de la copa -->
    <rect x="-15" y="20" width="30" height="4" fill="#fff"/>
    <!-- Cuerpo de la copa -->
    <path d="M-12,20 L-10,-5 L10,-5 L12,20 Z" fill="#fff"/>
    <!-- Asas -->
    <path d="M-10,-5 Q-15,-8 -15,-12 Q-15,-15 -12,-15 Q-10,-15 -10,-12" stroke="#fff" stroke-width="2" fill="none"/>
    <path d="M10,-5 Q15,-8 15,-12 Q15,-15 12,-15 Q10,-15 10,-12" stroke="#fff" stroke-width="2" fill="none"/>
    <!-- Decoración -->
    <circle cx="0" cy="5" r="3" fill="#FF6600"/>
  </g>
  
  <!-- Estrellas decorativas -->
  <g fill="#fff">
    <path d="M20,20 L22,25 L27,25 L23,28 L25,33 L20,30 L15,33 L17,28 L13,25 L18,25 Z" transform="scale(0.4)"/>
    <path d="M80,20 L82,25 L87,25 L83,28 L85,33 L80,30 L75,33 L77,28 L73,25 L78,25 Z" transform="scale(0.4)"/>
  </g>
  
  <!-- Texto -->
  <text x="50" y="85" font-family="Arial Black, sans-serif" font-size="10" font-weight="900" fill="#fff" text-anchor="middle">EUROPA LEAGUE</text>
</svg>