<svg xmlns="http://www.w3.org/2000/svg" viewBox="0 0 100 100" width="100" height="100">
  <!-- MLS Logo -->
  <!-- Fondo -->
  <rect width="100" height="100" fill="#004494" rx="10"/>
  
  <!-- Contorno del mapa de Estados Unidos estilizado -->
  <g fill="#fff">
    <path d="M15 40c5-3 10-2 15 0s8 5 12 3c3-1 5-3 8-2s5 4 9 4c3 0 6-2 9-1s5 3 7 5c1 2 1 5 0 7s-3 4-2 6c1 3 4 5 3 8s-4 6-7 7c-4 1-8-1-12 0s-7 3-11 2c-5-1-9-4-14-3s-9 3-13 1c-3-2-5-6-4-9s4-6 3-9c-1-4-5-7-4-11s5-7 1-9z"/>
  </g>
  
  <!-- Pelota de fútbol -->
  <g transform="translate(50, 35)">
    <circle r="8" fill="#fff"/>
    <g stroke="#004494" stroke-width="1" fill="none">
      <path d="M-3,-5 L3,-5 L5,0 L3,5 L-3,5 L-5,0 Z"/>
      <line x1="-3" y1="-5" x2="-5" y2="0"/>
      <line x1="3" y1="-5" x2="5" y2="0"/>
      <line x1="5" y1="0" x2="3" y2="5"/>
      <line x1="-5" y1="0" x2="-3" y2="5"/>
      <line x1="-3" y1="5" x2="3" y2="5"/>
    </g>
  </g>
  
  <!-- Texto MLS -->
  <text x="50" y="85" font-family="Arial Black, sans-serif" font-size="18" font-weight="900" fill="#fff" text-anchor="middle">MLS</text>
</svg>