<svg xmlns="http://www.w3.org/2000/svg" viewBox="0 0 100 100" width="100" height="100">
  <!-- Premier League Logo -->
  <!-- Fondo -->
  <rect width="100" height="100" fill="#3d195b" rx="50"/>
  
  <!-- León heráldico estilizado -->
  <g fill="#fff">
    <!-- Cuerpo del león -->
    <ellipse cx="50" cy="55" rx="18" ry="12"/>
    <!-- Cabeza -->
    <circle cx="50" cy="35" r="10"/>
    <!-- Melena -->
    <path d="M40 28c-3-2-4-5-2-8s6-2 9 1c2 2 2 5 0 7-1 1-2 1-3 0s-2 0-4 0z"/>
    <path d="M60 28c3-2 4-5 2-8s-6-2-9 1c-2 2-2 5 0 7 1 1 2 1 3 0s2 0 4 0z"/>
    <!-- Patas -->
    <ellipse cx="40" cy="67" rx="3" ry="8"/>
    <ellipse cx="50" cy="67" rx="3" ry="8"/>
    <ellipse cx="60" cy="67" rx="3" ry="8"/>
    <!-- Cola -->
    <path d="M65 50c3 0 5 2 5 5s-1 6-3 8c-1 1-2 1-3 0s-1-2 0-3c1-2 1-4 1-6v-4z"/>
  </g>
  
  <!-- Corona -->
  <g fill="#ffd700">
    <polygon points="45,18 47,12 50,15 53,12 55,18 52,22 48,22"/>
    <circle cx="47" cy="15" r="1"/>
    <circle cx="50" cy="12" r="1.5"/>
    <circle cx="53" cy="15" r="1"/>
  </g>
  
  <!-- Texto PL -->
  <text x="50" y="88" font-family="Arial Black, sans-serif" font-size="12" font-weight="900" fill="#fff" text-anchor="middle">PREMIER</text>
</svg>