<svg xmlns="http://www.w3.org/2000/svg" viewBox="0 0 100 100" width="100" height="100">
  <!-- Serie A Logo -->
  <!-- Fondo -->
  <rect width="100" height="100" fill="#004225" rx="10"/>
  
  <!-- Texto principal -->
  <text x="50" y="30" font-family="Arial Black, sans-serif" font-size="20" font-weight="900" fill="#fff" text-anchor="middle">SERIE</text>
  <text x="50" y="55" font-family="Arial Black, sans-serif" font-size="28" font-weight="900" fill="#fff" text-anchor="middle">A</text>
  
  <!-- Líneas decorativas -->
  <rect x="15" y="65" width="70" height="2" fill="#fff"/>
  <rect x="15" y="70" width="70" height="2" fill="#c8102e"/>
  <rect x="15" y="75" width="70" height="2" fill="#004225"/>
  
  <!-- Estrellas -->
  <g fill="#ffd700">
    <polygon points="25,85 27,89 31,89 28,92 29,96 25,94 21,96 22,92 19,89 23,89"/>
    <polygon points="75,85 77,89 81,89 78,92 79,96 75,94 71,96 72,92 69,89 73,89"/>
  </g>
</svg>