<?xml version="1.0" standalone="no"?>
<!DOCTYPE svg PUBLIC "-//W3C//DTD SVG 20010904//EN"
 "http://www.w3.org/TR/2001/REC-SVG-20010904/DTD/svg10.dtd">
<svg version="1.0" xmlns="http://www.w3.org/2000/svg"
 width="1280.000000pt" height="1226.000000pt" viewBox="0 0 1280.000000 1226.000000"
 preserveAspectRatio="xMidYMid meet">
<g transform="translate(0.000000,1226.000000) scale(0.100000,-0.100000)"
fill="#000000" stroke="none">
<path d="M6590 10981 c0 -1088 -2 -1282 -14 -1294 -11 -10 -57 -16 -178 -20
-847 -34 -1723 -320 -2403 -786 -488 -334 -877 -725 -1199 -1204 -215 -321
-372 -635 -494 -989 -160 -462 -225 -853 -226 -1348 -1 -363 31 -629 109 -928
48 -180 51 -186 118 -201 l55 -12 43 -102 c130 -313 200 -445 239 -453 14 -4
39 -9 55 -13 24 -5 41 -24 82 -86 162 -251 198 -305 230 -341 21 -24 30 -30
23 -16 -16 33 -7 36 20 7 23 -24 28 -25 153 -25 110 0 128 2 123 15 -3 8 -32
55 -65 104 -139 206 -262 434 -315 580 l-26 73 22 -6 c13 -4 43 -11 68 -16 25
-5 74 -18 110 -28 36 -11 88 -25 115 -31 28 -7 84 -19 125 -29 l75 -17 22
-100 c64 -282 96 -394 135 -487 l20 -48 109 0 108 0 27 -47 c46 -81 86 -144
90 -140 2 2 -5 30 -16 63 -29 82 -70 247 -70 279 0 22 3 25 24 19 l25 -6 -16
64 c-48 202 -79 394 -68 428 5 16 11 17 38 9 68 -19 65 -28 59 174 -8 293 23
509 108 768 273 830 1037 1447 1990 1608 238 40 543 57 561 30 6 -9 9 -523 7
-1401 -2 -762 -1 -1389 2 -1391 6 -6 4872 4463 4877 4479 2 5 -1057 938 -2353
2074 l-2356 2065 -84 3 -84 3 0 -1280z"/>
</g>
</svg>
